<svg xmlns="http://www.w3.org/2000/svg" viewBox="0 0 48 48"><defs><style>.cls-1{fill:#6fabe6;}.cls-2{fill:#82bcf4;}.cls-3{fill:#f6ccaf;}.cls-4{fill:#db5669;}.cls-5{fill:#dad7e5;}.cls-6{fill:#edebf2;}.cls-7{fill:#c6c3d8;}.cls-8{fill:#f26674;}.cls-9{fill:#9fdbf3;}.cls-10{fill:#b2e5fb;}.cls-11{fill:#ffdec7;}</style></defs><title>Store</title><g id="Store"><path class="cls-1" d="M41,5V7H7V5a4,4,0,0,1,4-4H37A4,4,0,0,1,41,5Z"/><path class="cls-2" d="M41,5V6H17c0-2-.24-3.6,1.36-5H37A4,4,0,0,1,41,5Z"/><path class="cls-3" d="M13,17c0,8-11,8-11,0Z"/><path class="cls-4" d="M24,17c0,8-11,8-11,0Z"/><path class="cls-3" d="M35,17c0,8-11,8-11,0Z"/><path class="cls-4" d="M46,17c0,7.91-11,8-11,0Z"/><path class="cls-5" d="M43,22.39V47H5V22.39a5.5,5.5,0,0,0,8-4.89,5.5,5.5,0,0,0,11,0,5.5,5.5,0,0,0,11,0A5.5,5.5,0,0,0,43,22.39Z"/><path class="cls-6" d="M43,22.39V44H21a4,4,0,0,1-4-4V22.79a5.5,5.5,0,0,0,7-5.29,5.5,5.5,0,0,0,11,0A5.5,5.5,0,0,0,43,22.39Z"/><path class="cls-7" d="M17,22.79V24a5.52,5.52,0,0,1-4.72-3.76A5.44,5.44,0,0,0,13,17.5,5.49,5.49,0,0,0,17,22.79Z"/><path class="cls-5" d="M21.84,21.86A5.46,5.46,0,0,1,17,24V22.79A5.44,5.44,0,0,0,21.84,21.86Z"/><path class="cls-5" d="M32.85,21.85A5.5,5.5,0,0,1,24,17.5a5.44,5.44,0,0,1-.72,2.72A5.49,5.49,0,0,0,32.85,21.85Z"/><path class="cls-5" d="M43,22.39v.35a5.5,5.5,0,0,1-8.72-2.52c1.06-1.85.58-3.6.75-2.22A5.49,5.49,0,0,0,43,22.39Z"/><path class="cls-7" d="M10.85,21.85A5.43,5.43,0,0,1,7.5,23C4.59,23,5,21.24,5,23.78A5.46,5.46,0,0,0,10.85,21.85Z"/><rect class="cls-4" x="29" y="29" width="10" height="18"/><path class="cls-8" d="M39,29V44H35a4,4,0,0,1-4-4V29Z"/><rect class="cls-9" x="9" y="29" width="16" height="10"/><path class="cls-10" d="M25,29v7H16a4,4,0,0,1-4-4V29Z"/><polygon class="cls-4" points="46 17 35 17 33 7 41 7 46 17"/><path class="cls-8" d="M45.5,16H39.28a4,4,0,0,1-3.92-3.22L34.2,7H41Z"/><polygon class="cls-3" points="15 7 13 17 2 17 7 7 15 7"/><polygon class="cls-4" points="24 7 24 17 13 17 15 7 24 7"/><path class="cls-8" d="M24,7v9H18.88A4,4,0,0,1,15,11.22L15.8,7Z"/><path class="cls-3" d="M35,17H24V7h9C33.79,10.93,34.67,15.37,35,17Z"/><path class="cls-11" d="M34.8,16H29a4,4,0,0,1-4-4V7h8Z"/><path class="cls-7" d="M46,48H2a1,1,0,0,1,0-2H46A1,1,0,0,1,46,48Z"/></g></svg>